<svg xmlns="http://www.w3.org/2000/svg" viewBox="0 0 75.41 76.65"><defs><style>.cls-1{fill-rule:evenodd;}</style></defs><title>album</title><g id="Слой_2" data-name="Слой 2"><g id="Слой_1-2" data-name="Слой 1"><path id="_4" data-name="#4" class="cls-1" d="M20.18,2.52H69.06c1.39,0,1.93-.19,3.27-.19,1.14,1.7.38,2.35.38,5.58V69c0,2.58.69,3.32-.57,5.2H7.48a6.62,6.62,0,0,1-.19-2.5c2,0,3.27,1.35,3.27-1.35,0-2.14-2.05-.73-2.05-.73-.57.18-.34,0-1.22,0v-4c2.24,0,.71.58,2.11.58,1.16,0,1.6-3.27-.19-3.27-.2,0-1.92,1.36-1.92,0V58.55H8.83c.34,1.27,1.92.4,1.92-.77,0-2.61-2-1.45-2-1.45-.51.09-.63-.07-1.27-.09V50.08c2.76,0,.76,1,2.69,1,1.34,0,1.8-3.85,0-3.85-.09,0-2.69,1.4-2.69,0V42.38c2,0,.45.38,2.12.77L9.81,43c.68-.66.56-.82.56-1.95s-1.82-1-2.89-1c0-2.33.19-2.48.19-4.43,1.72,0,.45.77,2.12.77,1.4,0,1.15-2.8-.23-2.95-.26,0-1.89.57-1.89-.52v-4c1.8,0,1,.73,2.05.51,1.38-.29.84-3,.07-3-1.33,0-.82.3-2.12,0V21.2c1.25,0,.93.58,1.73.58,1.14,0,1.59-1.82.57-2.51s-.27.28-2.3-.19a19.65,19.65,0,0,1,.39-5.2c1.66,0,.31.58,1.92.58.76,0,1-.75,1-1.35,0-.87-.41-1-.77-1.54-2.85.34-2.31,1.1-2.31-4.43C7.86,5.58,9.64,7,9.79,7c1.69,0,1.28-1.64.58-2.7A11.31,11.31,0,0,0,9,4.41c-.71,0-.47-.14-1.33-.16,0-2.43,1.28-2,5.4-1.93,1.19,0,2,.2,3.45.2ZM5.55,2.33V4.25C3.19,4.25.17,5.46.17,8.1c0,2.12,3.46,3,3.46,1.93,0-1.63-2.73-1.33-1-2.78a4.24,4.24,0,0,1,2.77-.88v5c-1.9,0-3.52.43-4.55,1.8a2.92,2.92,0,0,0,2.44,4.74c.45-1.94-1-1.38-1-2.69s2.14-1.35,3.08-1.35v5.2c-8,0-5.59,7-2.11,6.16-.32-1.34-1.11-1-1.54-2.89A2.54,2.54,0,0,1,3,21.51c3.12-1,2.19-.42,2.19,5.08-1.09.25-4.81.82-4.81,3.08,0,1.68.87,2.26,2.31,1.93.3-1.31,0-.7,0-1.93a5.13,5.13,0,0,1,2.5-.77v4.81c-5.53,0-6,5-3.08,5,1.22,0,.44-1.29.39-1.93a3.66,3.66,0,0,1,2.69-1v4.62c-5.34.12-5.51,4.82-2.69,4.82,1.24,0,.73-1.28.38-1.93a4.69,4.69,0,0,1,2.31-.77V48c-5.15.43-5.5,4.62-2.89,4.62.84,0,.58-.87.58-1.73a3.91,3.91,0,0,1,2.31-.58c0,6.87.43,6.07-1.33,6.19a6.33,6.33,0,0,0-1.73.38c-2.64,1-1.84,4.22-.21,4.22a2.77,2.77,0,0,0,1-.2c0-1.86-.27-.78-.58-1.92A8.27,8.27,0,0,1,5,58.36v5c-6.66,0-4.39,4.23-2.7,4.23.44,0,.23-.06.77-.19a2.14,2.14,0,0,0-.57-1.73,12.38,12.38,0,0,1,2.5-.2v4.24c-5.08.11-4.21,3.66-2.5,3.66.31,0,.57-.12.57-.39,0-.58-1-1.28,1.93-1.34,0,5.95.87,4.81,5.58,4.81H38.85c6.37,0,12.25.19,18.47.19l13.86-.19c4.13,0,4-.09,4-5.39V57c0-1.72.19-2.67.19-4.43V38.33c0-3.13-.19-5.93-.19-9.24V5.6c0-1.79-.2-3.06-.2-4.62C73.29-.18,72.61.29,70,.22L31.92,0C31,0,30,0,29,0s-1.45.21-2.69.2H9.21C7.13.2,5.55.2,5.55,2.33ZM35.38,9.26a11.83,11.83,0,0,1-1.26-.15l-10.86,0c-3.07,0-3.49-.06-3.47,2.88,0,2.15,0,4.1.19,6,.3,3.7,0,8.85,0,12.7,0,4.46-.54,3.65,2.69,3.66,1.3,0,1.75-.19,2.88-.2,12.06-.15,24.54.2,36.76.2.68-1.41.2-3.3.2-5.2l.19-17.52c0-1.38.33-2.26-.8-2.47a11.37,11.37,0,0,0-3.3.11l-23.23,0ZM18.45,7.72c-.24,2.92-.39.94-.39,5.39,0,2,0,4,0,6,0,1.19-.2,1.49-.21,2.68l.25,13.87a4.74,4.74,0,0,0,2.31.72l15.76.12c.62,0,2.07-.07,3-.07,1.76,0,22.4.27,23.87-.19s1.65-.06,1.59-1.78c0-.73.13-1,.13-1.88L64.64,9.25c0-1.92-.72-2.14-3.47-2.11-1.25,0-1.66-.17-2.69-.2-6.81-.2-16,0-23.29,0-1.4,0-1.93.2-3.27.2-4.39,0-9.19-.43-13.47.57ZM27.3,45.65c-1.84,2.76-.7,4-1.21,7.65a59.43,59.43,0,0,0,.25,8.33,14.39,14.39,0,0,0,.76,3.67c.9,1.55,9.87,1.53,11.75,1.53,22.12,0,17.61.09,18.1-5.76.22-2.69.55-12.58-.59-14.46s-4.79-1.34-6.65-1.2c-2.45.19-8.49-.06-10.74,0-1.21,0-3.49-.09-5.7-.09-2.44,0-3.63.38-6,.38ZM24,53.35c0,4.32-.71,12.88,2.93,14.4,4,1.65,28.87,2.77,31.36-.49a7,7,0,0,0,1.12-3.89c0-3.82.5-14.7-1-17.54a5,5,0,0,0-4.43-2.49c-3.73,0-24.9-.3-27.2.7-1.45.63-2.07,1.93-2.43,3.55A33.59,33.59,0,0,0,24,53.35Zm3.08-26.76c0,1.3.21,2.63,1.32,2.59s1.34-1.28,2.14-1.82c.49.73.68,1.35,1.54,1.35a2.8,2.8,0,0,0,2.31-2.31,2.93,2.93,0,0,0-2.12.77c-.69-.47-.87-1.14-1.89-1.05-.79.07-1.14.82-1.76,1.24-.61-1.28.16-2.31-2.12-2.31a26.69,26.69,0,0,1,3.16-4.54c1.5-2,1.95-1.4,3.17.13,2.77,3.53,4.43,6.92,6.71,10.61a2.85,2.85,0,0,0,1.59,1.5c.3-.63,0-1-.26-1.67l-1.67-3.33c-1.49-3-.18-1.63.72-1.64s.9-.41,1.78-.48c.5,1.87,2.76,1,2.89-.58-1.66,0-.82.38-1.58,0s-.51-1.43-3-.21a9.85,9.85,0,0,1,1.68-2.17c2-2.06,1.92-2.7,3.35-.75.61.83,7.35,11.46,7,8.22-.07-.75-2.05-3.65-2.63-4.53-1.63-2.44-4.79-8.79-7.65-5.34-.29.36-.25.39-.58.76l-3.51,3.81c-.47-.7-.84-1.41-1.31-2.16-1-1.65-3.35-5.16-5.42-5.16s-4.86,4.89-6,6.55a16.72,16.72,0,0,0-1,1.54c-.32.59-.57.93-.9,1.6-.63,1.26-4.41,7.09-2.14,6a33.1,33.1,0,0,0,3.22-4.33c.46-.79,1.95-2.22,2.9-2.3ZM38.27,52.2c0,1.58.07,2.75.18,4l.2,4c1.25-.11,3.16-1.46,4.09-2.08a24,24,0,0,0,3.42-2.74,26.89,26.89,0,0,0-7.89-3.27Zm-1.73,1.54c0,1.59-.21,6.33.38,7.51,1.3,2.6,5-.06,7.25-1.41,4.88-2.9,6.77-5.4-.39-8-2.47-.88-6.17-2.77-7-1.56l-.25,3.41ZM69.25,28.9h.58c0-1.33.6-3.52.58-5.77,0-3.55.78-8.22.76-11.95,0-1.25.39-3.38.14-4.56-.13-.62-.21-.77-.9-.83-.08.86-.59,3.1-.76,5.21s-.1,4-.35,5.82c-.4,2.92,0,8.84,0,12.08Zm-1,25.8c0,2.38-.24,9.1.19,11,.7-.19.53,0,.86-2a56.12,56.12,0,0,0,.29-8.57c0-1.19.2-1.49.2-2.68,0-1,0-2.06,0-3.09,0-1.83-.39-3.79-.39-5.58h-.57l-.59,8.08c0,1,0,1.93,0,2.89ZM55,13.3c0,1.64,3.27,1.82,3.27,0,0-.74-.56-.76-.77-1.54-.82,0-1.29,0-1.78.34A2.64,2.64,0,0,0,55,13.3Zm-1.54,0v.77c0,1,2.36,2.22,3.58,2.06,3-.39,5.36-5.71-1.27-5.71a3,3,0,0,0-2.31,2.88ZM14,72.22c.1,1.12.43.91,1.52,1,3.39.26,14.71.29,16.57-.6-.22-.54-.47-.58-1.35-.58H21.91c-2.87,0-5,.19-7.89.19Zm28.1,0c0,.17-.4,1,1.54,1s13.43.13,14.31-.13c.68-.2.5.09.7-.64l-8.25-.22c-2.79-.32-5.29,0-8.3,0ZM26.92,54.51h.57c.58-2.47-.52-4.19.9-6.62.41-.72.79-.83,1.22-1.47-2.18-1.23-3.5,3.35-3.14,5.64.15,1,.38,1.69.45,2.45ZM51.35,65.29c.25.91.57.59,1.55.4,3.52-.66,3.27-3.16,3.27-6.37,0-.73,0-.07-.2-.58-.71.48-.65.89-.75,1.94-.28,2.66-.18,4.3-3.87,4.61Zm-4-54.68v.58c1.1.09,2.32.77,4.43.77.89,0,1-1.19-1.2-1.5a5.61,5.61,0,0,0-3.23.15Zm8.86,8.08c0,1.25.2,2.63,1.34,2.89,1.25-5.37-1.34-4-1.34-2.89Zm-8.28-2.88a11.18,11.18,0,0,0,2.39-.5c1-.25,1.43-.28,1.65-1.24-.84-.58-1-.56-2.63.25-.77.38-1.33.51-1.41,1.49ZM67.33,72c2.09.49,2.27-2.34,1.92-3.85-1.07.09-.93.78-1.13,1.75-.25,1.17-.72,1.22-.79,2.1Zm-6-52.18c0-1.24-.25-3.08-1.35-3.08s-.68,1.16-.38,1.73a2.11,2.11,0,0,0,1.73,1.35Zm-9.81,0c.76-.2.85-.59,1.27-1.23C55.22,15,51.55,15.36,51.55,19.85Z"/></g></g></svg>