<svg xmlns="http://www.w3.org/2000/svg" viewBox="0 0 70.31 81.25"><defs><style>.cls-1{fill-rule:evenodd;}</style></defs><title>article</title><g id="Слой_2" data-name="Слой 2"><g id="Слой_1-2" data-name="Слой 1"><path id="_5" data-name="#5" class="cls-1" d="M52.68,15.15c0,3.57.65,8.51,4.52,9.12,2.37.38,3.48-2.29,4-4.2A46.09,46.09,0,0,0,62.46,8.63c1.13-.3-.2-.38,1.72-.38,1.53,0,3.27.34,3.69,1.49.08.24.35,4.25.35,4.83,0,3.54.17,6.69.19,10.37l-.2,20.91c0,1.91-.19,3.07-.19,5V66.76c0,3.42.15,7.17,0,10.56,0,1-.2,1.3-1,1.52-1.31.38-8.6.38-10.35.38-2.46,0-4.47-.2-6.72-.19s-4.34-.39-6.7-.38l-40.65.19c-.69-3,.2-6.85-.24-10.11-.41-3-.14-6.91-.14-10.22,0-.77.13-.62.13-1.15l-.13-1.73c0-4.51.23-9.38-.14-13.87-.06-.71.14-.92.14-1.86V23c0-3.78-.94-11.37.72-14,1.44-2.33,4.79-1.29,8.29-1.3h5c1.94,0,3.11.2,5,.2,3.69,0,17.65-.2,20.12,0,3,.24,6.51.19,9.79.17,1.64,0,5.62.37,7.26.16,1.9-.23,1.75-.24,1.75,2,0,2.5-.22,4.65-.4,7.08-.16,2.14-.49,4.31-2.1,5.39a2.79,2.79,0,0,1-2.17-2.05c-1-2.47-1.12-8.54.83-9.85.48,2,.77.82.77,4.22,0,.54-.35.56-.62.93-.45.62-.22.36-.15,1.18,2.83.68,2.5-2,2.5-4.41,0-4.15-3.83-5.75-5.45-1a11.53,11.53,0,0,0-.69,3.53ZM56.51,1.92c2.66,0,3,2.36,3.46,4.41l-6.91-.19a6.43,6.43,0,0,1,1.23-2.61c.49-.68,1.17-1.61,2.22-1.61Zm-4.6,4c-4.2,0-7.79-.2-11.88-.2-6.05,0-26.91-.2-29.52,0-2,.16-6.86,0-8.42.78A3.31,3.31,0,0,0,.55,8.45,42.28,42.28,0,0,0,0,14.72c.34,4.15.14,9.19.14,13.67V56.2c0,6.32.3,11,.37,16.89A50.45,50.45,0,0,0,1,79.52c1,1.71,3.13,1.25,5.86,1.24,2.47,0,6.66.43,10,.39,1.16,0,1.85-.21,3.25-.2l37,.25c1.41.18,5.58-.24,7.14-.25,2.09,0,5.06-.1,5.79-2.07.66-1.76.16-12.38.16-14.81l-.19-46.23a31.43,31.43,0,0,0-.17-3.67c-.21-1.88.53-4.93-1.16-6.52C66.75,5.91,63,7,62.25,6.34c-.3-.29-.39-1.91-.82-3A5.37,5.37,0,0,0,56.71,0c-2.69,0-4.8,3.21-4.8,6ZM11.08,30.5c.21.78,1.32.39,2.29.38h3.07c4.53,0,4.86.47,4.54-1.44a37.8,37.8,0,0,1-.13-6c0-7.83.82-6.72-2.49-6.71l-6-.13c-1.95,0-.78,4-1.11,8-.09,1.09-.51,4.74-.18,6ZM9.16,16.31c0,4.51-.14,10.57.19,15,.15,2,1.69,1.39,3.6,1.58l7.33.15c2.16,0,2.71-.16,2.68-5.18a22.71,22.71,0,0,1,.09-2.37A44.5,44.5,0,0,0,23,18.6c-.38-4.7,1.67-3.83-11.32-3.83-1.3,0-2.49.22-2.49,1.54Zm.77,33c0,1.32,4.1.93,5.37,1s1.58.21,2.87.2H58.24c1.65,0,2.31-2,.17-2.18-.15,0-.76,0-.89,0-.64,0-.34-.12-1-.12H23.73c-.59,0-1.13.12-1.5.14-4,.22-7-.2-11.15.24-.6.07-1.15.12-1.15.77Zm.38,17.84c1.1.74,3.55.77,5.18.77L45,68.1c4.26,0,7.93-.19,12.08-.19.89-1.34.73-2.31-1.34-2.31H22.58c-1.72,0-2.91.21-4.41.2a41.38,41.38,0,0,0-6.7.2c-.87.15-1,.3-1.16,1.14Zm-.19-9.59c.26,1.14.78.87,2.09,1,5.24.4,16.8.18,22.26.18,3.85,0,21.61.31,23.77-.19.66-1.39-.22-1.92-1.15-1.92H17.4c-1.51,0-2.61.08-3.84.18-1.65.13-2.69-.35-3.44.78Zm-1-16.5c1.09.73,1.06.5,2.68.58,7.62.35,15.55.19,23.2.19L54,42c1.74,0,5.56.57,5.56-1.15,0-.62-.69-1-1.34-1-12.64,0-26-.16-38.54,0-1,0-1.13.18-2.1.21l-6.84.06c-1.14.17-1.18.09-1.6.89Zm19-9.4c.67,1,1,.68,2.48.78,5.71.42,15.38.18,21.48.18a1.72,1.72,0,0,0,1.73-.77c-.19-.83-.21-.74-1-.93-2.25-.53-17.58-.15-22.41,0a2.91,2.91,0,0,0-2.12.56.81.81,0,0,0-.09.1s0,.08-.08.11Zm1.15-7.1c.82,1.13,8.74.67,10.63.82,1.37.1,9.69.76,9.69-.82,0-.9-.67-1.15-1.72-1.15H37.53c-1.29,0-1.74.19-2.86.2s-2.12-.08-3.05,0c-1.68.18-2.11.1-2.33.93ZM64.18,55.63a46,46,0,0,0,.58,7.67c.77-.56.94-5.86,1-6.71l.38-7.29c0-1.51.2-2.17.19-3.64l.2-7.49c0-1.54-.2-2.28-.2-3.83-.61.45-.25-.07-.45.89l-.47,3.94c-.54,3.7-.62,8.85-.91,10.79l-.28,5.67ZM4.75,72.13c.41-.86,1-21.43,1-24.37a2.64,2.64,0,0,0-.2-1.14c-.2-.57-.14-.61-.76-.77a7.82,7.82,0,0,0-.58,2.87c0,3.71.16,18.48-.14,20.58-.12.9-.27,2.56.72,2.83Zm-1-40.86V34c0,.74-.06.07.19.58.76-.2.77-.45.77-2.3,0-1.24.19-1.73.19-3.08s.2-1.71.2-3.06c0-3.33.72-14.08.38-15.54-1.79,0-1.13,1.44-1.36,4.21l-.37,5.37c.3,5.57,0,5.5,0,11.14ZM29.86,16.5c.14.49.19.71,1.73.76l7.28.39h5.37c1.41,0,4.41.35,4.41-1,0-.91-1.53-1-2.49-1-2.86,0-14.94.12-16.3.77ZM18.17,76.92c.22.55.39.59,2.29.58,2.23,0,5.15.36,8.45.38l5.56-.19a25.49,25.49,0,0,0,5.36-.58c-.22-.56.24-.26-.85-.49a6.94,6.94,0,0,0-1.45-.08c-1.11,0-1.46-.2-2.68-.2s-1.67.17-2.68.2-1.94,0-2.89,0c-1.18,0-1.48.21-2.67.21-1.94,0-7.5-.27-8.44.18Zm46.4-1c.16,0,1,.4,1-1.53a24,24,0,0,0-.35-4.65c-.18-.7.16-.52-.61-.72V76ZM4.17,74.81c0,1.26,0,1.87,1.46,2.4.88.31,1.52.48,1.61-.67-1.67-.39-1.92-1-2.3-2.69H4.37A2.77,2.77,0,0,0,4.17,74.81Z"/></g></g></svg>