<svg xmlns="http://www.w3.org/2000/svg" viewBox="0 0 77.31 80.88"><defs><style>.cls-1{fill-rule:evenodd;}</style></defs><title>#2</title><g id="Слой_2" data-name="Слой 2"><g id="Слой_1-2" data-name="Слой 1"><path id="_2" data-name="#2" class="cls-1" d="M45.58,70.61c.35.27.29,0-.22,1a34.88,34.88,0,0,1-2.49,4.19,3.28,3.28,0,0,0-.63,2.08c1.27,0,1.18-.49,1.83-1.3a11.81,11.81,0,0,0,2.43-4c1.19-3,3.88-9.48,3.88-12.62,0-5,.4-10.63-4.21-13.74-1.16-.78-2.08-1.51-3.1-1.29v.83a13,13,0,0,1,3.4,2.67,12.9,12.9,0,0,1,2.16,4.1,8.74,8.74,0,0,1,.5,2.42c.13,2.16,0,6.81-.84,8.14,0-1.25.42-2.51.42-3.76,0-10.86-6.38-13.43-6.89-14.19,1.73-.83,2.79-.47,4.8-.84,4.83-.87,9.86-.48,13.57,2.71a10.4,10.4,0,0,1,2.3,3.35c1.71,4,.43,10.49-1.07,14.17a27.14,27.14,0,0,1-4.36,6.91C54.24,75.09,47.36,79,42,79H41c0-1.64,1.22-3.11,2-4.43.41-.65.82-1.27,1.26-1.87a12.41,12.41,0,0,0,1.29-2Zm-38-.21c.17-.63,0-.46.63-.63.61.45.39,0,.42,1-1.07,0-.6.19-1.05-.41ZM46.2,69.14s.06.06.07.07l-.07-.07Zm.21-.41c0,.58.12,0,.13,0,.2,0-.13-.54-.13,0Zm.21-.63s.06.06.06.06l-.06-.06Zm.21-.63s.06.06.06.07l-.06-.07Zm1.46-4.17c-.17.27,0,0-.19.43l-.27,1c-.11.41-.26.8-.37,1.29a4.87,4.87,0,0,0,.83-2.71ZM2.12,50.81l.25.17a17.74,17.74,0,0,1,2.45-3.8,31,31,0,0,1,5.24-5,21.79,21.79,0,0,1,5.07-3.28c3.71-1.5,4.41-1.69,8.32-1.69,3.17,0,6.06,2.74,7.38,5.35,2,3.92.67,6.28-2.21,9.21-1.85,1.89-5.3,4.48-7.42,6.36l-6,5.22-2.81,2.82c-.05,0-4.32,3.39-2,3.39.62,0,2.3-2.13,2.74-2.68a14.37,14.37,0,0,1,2.6-2.63c1-.81,1.85-1.67,2.92-2.5s1.87-1.5,3-2.25c.59-.4,1-.74,1.56-1.15s1-.67,1.61-1.1a37.38,37.38,0,0,0,5.48-5c.79-.9,1.41-2.23,2.87-2.35a5.79,5.79,0,0,1-1.83,3.59l-2.6,2.63c-1.94,1.69-3.86,2.93-5.95,4.48a59.56,59.56,0,0,0-8.46,7.41c-.69.69-2.24,1.81-2.24,3,0,1.9,5.79,1.46,7.72,1.46,9,0,18.7-5.91,23.8-13.15l1.59-2.17c.93-1.47.64-4.62.06-5.95-3.51-8-11.92-3.15-12.5-3.15-1.32,0,1.18-3.13-1.73-6.83a17.71,17.71,0,0,0-2.3-2.51c-4-3.41-9.74-2.56-14.17-.71A23.62,23.62,0,0,0,3.53,48L2.12,50.81ZM60.4,41.17a12.48,12.48,0,0,1,5.81,2.13A17,17,0,0,1,69.53,46c1.12,1.11.78,1.23,1.1.79a18.88,18.88,0,0,1-1.81-2.16,7.81,7.81,0,0,0-2-2,9.34,9.34,0,0,0-6-1.94c-5.18,0-3.44.4-7.1,1.26v.41a14.29,14.29,0,0,0,2.47-.86,14,14,0,0,1,4.21-.39Zm-6-1A21.7,21.7,0,0,0,57,39.45a12.81,12.81,0,0,1,11.9,3.23,8.13,8.13,0,0,1,1,1.12c.39.49.63.65,1,1.1a18.26,18.26,0,0,1,4.35,12.55l.42-4.38c0-3.35-2.31-8.43-3.78-10.41a8.92,8.92,0,0,0-3.94-3.16c-3.11-1.26-10.81-1.77-13.57.63ZM24.7,34.07a27.64,27.64,0,0,1,6.52.37c1.16.26,1.75.36,2.09,1.47a31.06,31.06,0,0,1,.58,6.51c-.48-.55-.71-1.75-1.52-2.86-2-2.79-4.78-4.25-8.29-5.07.24-.35,0-.42.62-.42ZM30.34,6.94c0,3,1.05,7.13,1.71,9.77,1.4,5.57,2.14,8.65,3.09,14.23A72.38,72.38,0,0,1,36,41.37c-.42,4.93.94,3.68,5.4,2.47,1.11-.3,2.32-.69,3.59-1,3.36-.82,5.37-.31,6.33-2.85.31-.81-.17-7.32-.33-8.57A58.89,58.89,0,0,0,47.4,16.6C46,13,43.22,8,40.06,5.56c-1.68-1.31-3.74-3-6.17-3-2.68,0-3.55,2-3.55,4.39ZM28,5.47c0,8,2.85,16.55,4.41,24.41a30.48,30.48,0,0,0,.6,3.36c-1.6,0-1.94-.84-6.68-.84-5,0-13.77,2.28-17.14,6-.34.38-.11.26-.57.68A24,24,0,0,0,6,41.47l-.7.76A21.2,21.2,0,0,0,1.46,48C1,48.85-1.07,54.53.7,54.53c2.33,0,3.85-5.41,7.54-8.32.62-.49,1-1,1.59-1.54l3.72-2.75c2.15-1.42,6.57-3,9.69-2.64,2.83.31,6.47,3.22,6.47,6.28,0,2.86-3.29,5.26-5,6.72l-4.88,3.89c-7.75,5.75-5.81,5.35-10.56,10.1a20.12,20.12,0,0,1-1.48,1.45C6,69.2,5.88,68.34,6.39,71c.68,3.55.28,2.08,5.94,2.82,2.26.29,2.58.78,6.11.78,5.89,0,8.59-1.26,13.21-3.07a23.94,23.94,0,0,0,3.71-1.93,35.31,35.31,0,0,0,3.24-2.18,29.26,29.26,0,0,0,5.54-5.52l1.77-2.41c.49-.83.05-.51.71-.75.9,1.86-1.63,8.55-2.71,10.65-1.23,2.39-2.95,3.71-4,6.19-4.34,10,13.42,4.07,18.43-2.44C63,67.07,65.2,63,65.2,54.53a11.72,11.72,0,0,0-5.91-10.16c-.3-.17-.6-.33-.79-.46-.65-.44-.36,0-.61-.65,3.63-1.74,11.32,2.43,13.28,7.39C72.83,54.83,72.94,56.58,74,61c.94.08,1.71.21,2.72-2.08.64-1.46.62-4.41.62-6.27,0-3.43-2.91-9.11-4.47-11.19-3.09-4.12-10.6-5-15.66-3.93-1.18.25-1.89.71-2.83.93,0-10.8-2.86-25.19-10.81-33-3.28-3.25-9.3-8-13.89-3.76A6.58,6.58,0,0,0,28,5.47ZM47.87,32.2,45.16,21.34C44.37,18.15,42,12.74,42,10.9c1.26.11,2.4,2.6,3.06,4A43.06,43.06,0,0,1,48.5,32.2Zm-15,34.23c2.61,0,6.95-4.23,8.39-6,1-1.2,3.3-3.43,3.3-5.46,0-.4-.44-.52-.85-.27s-.39.55-.55,1c-1.26,3-8.44,8-10.29,10.8ZM56,68.94c1-.09,1.36-.82,1.93-1.41a14.78,14.78,0,0,0,2.78-4.32,5.74,5.74,0,0,0,.3-2.83c-1.16.09-1.47,1.84-2.55,4.13a15.8,15.8,0,0,1-1.25,2.09A5,5,0,0,0,56,68.94ZM38.69,42.42c-.79-.21-.7-.49-.85-1.45l-.62-5.86c-.14-2.15.05-1.8.34-1.94.49-.24.76.52.89.93.54,1.73.45,4.52.45,6.45,0,1-.19.93-.21,1.87ZM60.61,54.53l-.21,3.55c2.2-.59,2.21-7.8-.63-8.56,0,1.93.84,2.87.84,5ZM34.31,4.22c0-2.1,4.54,2,4.59,4.18-.71-.19-4.59-3.6-4.59-4.18Zm14,30.69c0-.4.07-.37.21-.63.73.08.47-.08.78.48a7,7,0,0,1,.26,4.12h-.62c-.46-2-.63-.16-.63-4ZM40.57,41c-.14-.57-.3-1.61-.38-2.14-.18-1.17-.16-1.33.8-1.41.06.79.41,1.4.41,2.09s-.18.5-.21,1.46ZM58.94,53.49a3.2,3.2,0,0,0,0-1.89c-.15-1-.08-1.16-1.06-1.24C57.89,51.48,57.87,53.2,58.94,53.49Z"/></g></g></svg>