<svg xmlns="http://www.w3.org/2000/svg" viewBox="0 0 77.27 80.88"><defs><style>.cls-1{fill-rule:evenodd;}</style></defs><title>#1</title><g id="Слой_2" data-name="Слой 2"><g id="Слой_1-2" data-name="Слой 1"><path id="_1" data-name="#1" class="cls-1" d="M46,66l.16.11a54.88,54.88,0,0,1-6,4.46L39,71.19a11,11,0,0,0-1,.74,4.64,4.64,0,0,1-4,.84c-.73-.13-.54-.43-.28-1L39.8,64l9.8-8.41c.35-.31,1.25-1.14,1.6-1.14,1.14,0,.21,2.29-.06,3.64,0,.27-.06.57-.13.83l-.65,2.36a9.34,9.34,0,0,1-.44,1.48,14,14,0,0,1-3.24,2.78l.42-.4a15,15,0,0,0,2.1-2l.25-.32.06-.08c.33-.5.3-1.19-1-.19l-9.68,7.3c-.57.37-.72.24-.74,1,.86,0,2.17-1,3.2-1.6A42.31,42.31,0,0,0,46,66Zm.41-.28s0,0,0,0l0,0ZM53.66,45c.07-.67.19-.22,1.41-1.74l.74-.91c.17-.2.19-.25.36-.46s.25-.31.37-.45a12,12,0,0,1-.89,2.26c-.63,1.28-1.34,1-2,1.3Zm-50,4.24a2.88,2.88,0,0,1,1.41-.92l8.14-3.5c1.11-.45,2.39-.82,3.5-1.16,2.24-.69,9-2.44,11.17-2.79.28,0,.6-.08.95-.15,1.16-.25,2.5-.82,2.5,0,0,.46-.39.5-.81.84l-.5.46c-1.59,1.42-4.23,4.46-5.81,5.14a22.76,22.76,0,0,1-7.39,1.64h-9c-1.5,0-2.62.41-4.11.41ZM52.43,5.32c1,1.83,2.18,3.36,2.84,5.37.11.34.13.48.24.86a2.42,2.42,0,0,1,.2.76l.69,5.47a18.46,18.46,0,0,1-1,5.41c-1.08,3.15-4.42,6.87-7,9l-.44.38a29.16,29.16,0,0,1-5.21,4c-.35.21-.62.32-1,.54l-2.88,1.78-1,.52A37.84,37.84,0,0,0,29.32,46,35.46,35.46,0,0,0,25.2,51.2l-2.33,3.7a45.34,45.34,0,0,0-3,6.13C16.63,68.17,17.31,69.79,16,75.4a1.34,1.34,0,0,0,.82.28c2,0,1.74-1.8,2.35-3.82l.91-2.23c.19-.36.3-.64.52-1,3.2-5.14,2.47-4.11,7-8.33a6.84,6.84,0,0,1,.81-.69l9.22-6.12c1.6-.82,3.12-2.06,4.63-3l9.89-7,4.33-4.84a12.58,12.58,0,0,0,1-2c.16-.4.27-.69.45-1.06.72-1.46,1.21-2.83,1.8-4.36a13,13,0,0,0,1.05-5c0-.71.11-.75.14-1.37a15.93,15.93,0,0,0-.22-2.79,4.47,4.47,0,0,1-.19-1.45,4,4,0,0,0-.19-1.31c-.12-.52-.12-.75-.27-1.24-1.14-3.88,1.31-1.76,1.84,2.82.07.6.19.64.26,1.25a27.67,27.67,0,0,1,0,8.18A23.93,23.93,0,0,1,60.9,34.6l-.17.5c-1.27,3.39-2.29,6.87-3.59,10.25l-1.2,3.31c-.15.44-.26.82-.4,1.25-.06.21-.1.41-.17.65s-.1.3-.16.52c-1.5,5.58-2.85,9.64-1.21,15.36.23.78.51,1.52.77,2.24,1.18,3.23,3.87,6.89,6.93,8.41a8.76,8.76,0,0,0,1,.47c.43.16.79.19,1.2.31s.29.07.67.16.27.1.53.15c.59.11,1.4-.6,1.94-.88,1.21-.62.66-1.72.16-2.59-.22-.39-.37-.6-.61-1S66.27,73,66,72.61c-2.49-4.44-1.54-11.78.2-16.12l3.54-7.69c1.29-2.76,2.16-5.08,3.25-8,.17-.43.22-.75.35-1.15s.21-.66.33-1A22.33,22.33,0,0,0,74,25.36l-.76-2.11c-.12-.29-.08-.19-.21-.48a15.42,15.42,0,0,0-2.42-4L69.08,17a26.75,26.75,0,0,0-5-4.44c-2.18-1.57-2.9-2.37-4.72-3.78A12.38,12.38,0,0,1,55.85,4h-.27c0,.9-.28,1.8-1,2s-1.37-.57-2.1-.59ZM49.55,3.68c0,.78.79,1.68,1.29,2.41s.86,1.37,1.32,2.1l.62,1a15.5,15.5,0,0,1,1.71,6.65,15.49,15.49,0,0,1-.43,5.19,12.87,12.87,0,0,1-2.69,4.84A28.34,28.34,0,0,1,48.6,29l-4.15,3.39a25.38,25.38,0,0,1-3,2l-3.2,2A9.64,9.64,0,0,1,33,37.91c-2,.14-3.78.7-5.74,1-.5.07-.68.17-1.37.27-.48.07-.8.18-1.37.27-.93.16-1.86.39-2.82.61-2,.44-3.75.75-5.55,1.29L11.2,43.1c-.83.3-1.56.63-2.34.94a35.48,35.48,0,0,0-4.6,2.11l-1.92,1.5a8.6,8.6,0,0,0-2.28,2.8c-.7,2,4.75.52,5.54.46,1.09-.09,2.4-.06,3.47-.22,3.78-.57,7.74,1,12.85-.71.6-.2,1.1-.46,1.61-.58a3.76,3.76,0,0,1-.68,1.23c-2.65,4.43-2.71,3.85-5.11,9.13-.41.91-.86,1.86-1.19,2.78l-1.06,3c-1.14,4.84-1.59,6.6-1.15,11.62a2.34,2.34,0,0,0,.43,1.49,10.36,10.36,0,0,0,1.86,0c3.24-.62,3.07-.58,3.62-4.19a4.31,4.31,0,0,1,.23-.87,17.2,17.2,0,0,1,3.11-5.78c.33-.46.58-.86.93-1.26l.26-.3L25,66a5.55,5.55,0,0,1,.52-.58l4.75-4.14c.49-.37.84-.69,1.31-1L48.73,48.43c1-.72,3.34-.45,4.75-1,.45-.17.06-.18.73-.23a6.3,6.3,0,0,1-.5,1l-.29.39-1.48,1.67-.07.06-.07.07-.22.19c-.55.49-1,1-1.51,1.5l-4.21,3.46L45,56.2l-5.06,4.11-.15.12-.22.19A17.88,17.88,0,0,0,37,63.44,64.54,64.54,0,0,0,32.79,70a7.68,7.68,0,0,0-.57.93c-.2.42-.3.64-.49,1l-.29.54a.86.86,0,0,0,.48,1.37,12.36,12.36,0,0,0,4.21.58c1.16,0,2.83-1.77,3.86-2.31a48.29,48.29,0,0,0,8-5.24l2.17-1.8a5.19,5.19,0,0,1,.86-.78c.3.57,1.12,4.57,2.1,6.52A19.19,19.19,0,0,0,56.78,76a9.7,9.7,0,0,0,5.45,3.17,3.3,3.3,0,0,0,.89.21c4,.33,4.07,1.51,7.25,1.51a6.16,6.16,0,0,0,2.15-1.41,2,2,0,0,0,.59-1.74l-.74-.22a3.52,3.52,0,0,1-.71-.25c-2.57-1.22-4.3-6.42-4.3-9.11A37.87,37.87,0,0,1,67.92,62a37.54,37.54,0,0,1,2.9-8.33l3.35-7.88a54.57,54.57,0,0,0,2-6.3c1.14-4.35,1.64-10.17.05-14.47a44.36,44.36,0,0,0-2-4.56,7.89,7.89,0,0,0-.6-1,39.2,39.2,0,0,0-3.44-4L62,8.89a22.17,22.17,0,0,1-5.12-7.2c-1-2.08-1.44-2.06-3.11-.91-.92.64-2,1.09-3,1.64-.41.23-1.21.69-1.21,1.26ZM29.83,53.23c.32,0,9.27-5.17,10.47-6l2-1.31a23.07,23.07,0,0,0,1.9-1.39l3.74-3a2.24,2.24,0,0,1,.21-.2l.07-.07,3.21-3,.06-.07.25-.3c2.88-3.12,3.39-3.68,5-7.82,0-.1.09-.21.12-.3.12-.3,1.33-3.62,0-2.67A4.73,4.73,0,0,0,56,28.59L55,31a11.7,11.7,0,0,1-2.7,4.14,30.12,30.12,0,0,1-3.57,3.28l-5.87,4.53c-2,1.54-3.91,2.48-6.44,4.65l-4.94,3.55c-.31.25-2.94,2.09-1.61,2.09ZM69.69,24.35a2.07,2.07,0,0,1,.13-.69.8.8,0,0,1,.74.36c.51.64.32,1.93.46,2.55a23.12,23.12,0,0,1,0,8.17,34.06,34.06,0,0,1-3.12,10.43c-1.25,2.83-3,6.71-4,9.52-.09.25-.1.24-.19.49l-.45,1.33c-.21.61-.37,1.24-.58,1.89-.35,1.05-.24,1.46-.93,1.54-.36-.76.21-2.62.28-3.15a45.85,45.85,0,0,1,1.25-4.91l1.88-5.38c2.62-6.58,2.85-6.1,4.32-13.06l.31-2.15c.48-3.6-.09-4.14-.09-6.94ZM21.62,63.08a2.23,2.23,0,0,1,.18-1.31l.58-1.62a9.87,9.87,0,0,1,.54-1.24c.81-1.58,3.86-4.71,4.56-4s-2,3.53-2.62,4.32S23,62.33,22.24,62.88a.81.81,0,0,1-.62.2ZM65.17,73.9c-.38,0-1.33-1-1.6-1.28l-.25-.3-.06-.08-1.63-2.06c-.72-1.13-1.06-5.59.11-5.59s-.22,3.22,2.12,6c.45.54,2.94,3.35,1.31,3.35Zm-53-26.56v.55c.53.3,4.44.14,5.34.14a18.42,18.42,0,0,0,5.28-1.16c.42-.17.67-.26,1.05-.45s1.55-.67,1.09-1.13c-.19-.2-.16-.14-.56,0s-.25.11-.31.13a2.08,2.08,0,0,1-.3.12l-6,1.28-4.25.27c-.71,0-.73.22-1.36.27ZM41.88,66c.65.15.42.13,1.76-.71l1.75-1.12c.49-.33,2.81-2.11,2.52-2.83-.37-.15-.49.05-.83.26l-2.45,1.66c-.57.36-.87.93-1.44,1.31S42,65.16,41.88,66Z"/></g></g></svg>