<svg xmlns="http://www.w3.org/2000/svg" viewBox="0 0 81.5 68.25"><defs><style>.cls-1{fill-rule:evenodd;}</style></defs><title>message</title><g id="Слой_2" data-name="Слой 2"><g id="Слой_1-2" data-name="Слой 1"><path id="_6" data-name="#6" class="cls-1" d="M35.11,41.07c2,0,2.31,3,2.87,4.22,1.69,0,4.22.18,4.22,1.72,0,.9-2,1.29-2.85,1.56a29.24,29.24,0,0,1-3.48,1.13,5,5,0,0,0-.43-.91A3.25,3.25,0,0,0,32.8,47c.81-1.68,1.17-5.94,2.31-5.94ZM55,25.34c.38-1.6,6.06-6.14,7.72-7.82a9.32,9.32,0,0,1,1.13-1L71,10.18c-.38-1.61-.12-1.39-1.2-2.45-.41-.4-1.46-1.58-2.06-1.58-2,0-1.8.44-2.92,1.49-4.37,4.05-8,7.81-12.18,12L37.45,36.7c-.43.47-.5.68-1,1.15A3,3,0,0,0,35.68,39c.5.74,1.13.93,1.78,1.67,1.51,1.73.52,3.77,5.18-1.81.57-.68,1.21-1.17,1.81-1.83,1.9-2,6.94-7.46,9.06-8.58-.12,1.45-2.93,4-4,5.23-.35.42-.36.53-.77,1l-3.56,3.54c-.43.45-.47.61-.86,1-.89,1-4,3.64-4.26,4.56a22.1,22.1,0,0,0,2.11,1,3.14,3.14,0,0,1,1.53,1.54A3.38,3.38,0,0,0,45,45.43l2.69-3.07c.64-.72,1.33-1.3,2-2l1.82-2c2.67-2.67,5.08-5.28,7.76-8L71,18.48c1.12-1.12,3.6-3.19,3.6-4.27,0-1.72-1.13-2.88-1.73-2.88-1.78,0-5.18,3.93-6.85,5.61-.75.76-1.35,1.15-2.11,1.92l-3.26,2.88a8.3,8.3,0,0,1-1,.88l-2.13,1.91C56.09,25.76,56,26,55,25.34ZM68.46,4.81a2,2,0,0,1,.94-1.38c1.54-.86,3.19,1,4.62,2.15s4,3.58,4.41,5.56c-.31.43-.55.46-1,.91s-.47.75-1.3.82C75.73,11.35,72.2,8,70.6,6.7a10.31,10.31,0,0,1-2.14-1.89Zm3.46-2.69c1.76-1.18,5,.1,6.19,1.29A5.78,5.78,0,0,1,79.78,9c-1.22,0-.88-.52-2-1.68C77.2,6.69,76.63,6.18,76,5.53a12.13,12.13,0,0,0-2-1.64c-1.44-1-1.56-.79-2.07-1.77Zm-42,50.26c0,1.91,3.44.09,3.91-.11a76.15,76.15,0,0,1,9-3.22c1.67-.46,2.2-1.78,3.42-2.72,2.53-2,14-14.12,18.27-18.36L78.1,13.87c2.19-2.37,3.4-3.55,3.4-6.57a6.58,6.58,0,0,0-2.6-4.87A11.34,11.34,0,0,0,76.84.84C75-.16,71.78-.43,70,.94a24.12,24.12,0,0,0-2.61,1.81c-.3.28-.46.49-.77.76C60,9.35,57.15,12.39,50.59,19l-4.32,4.7C43.79,26.1,36,35.65,33.93,38.35c-1.47,2-3,8.59-3.54,11.43a12.34,12.34,0,0,0-.46,2.6ZM0,33.2C0,38.06-.19,47.68.7,51.89c.69,3.24,3.54,3.73,3.54,7.4l-.83,7.24c-.86,4.54,5.35-1.06,9-3.29,5.77-3.54,7.35-3,14.08-3,1.87,0,6,.42,8.63.39l5.55-.39c2-.11,4,0,5.77-.18,5-.41,10,.54,14.22-3.61a5.38,5.38,0,0,0,1.87-4.08c0-3.6.21-13.85-.37-17.28-.14-.82-.07-.94-.78-1.13-.49.35-.36.18-.51,1-.64,3.69-.29,16.36-.39,16.86-1,5-4.51,5.25-8.94,5.85a66.61,66.61,0,0,1-8,.43c-1,0-1.05.16-1.91.2-.67,0-1.42,0-2.09,0-7.14.59-16.34-.92-22,.3-3.74.8-7.6,4-10.73,6.14a20.77,20.77,0,0,1-2,1.42c.1-1.11.43-2.12.61-3.23C7,53.38,3.1,56.51,2.35,49.09l-.24-8.43c.09-1-.17-1.79-.17-3,0-2.31,0-4.49.18-6.53.08-1,0-2.26,0-3.25,0-1.41.2-2,.2-3.25a51.73,51.73,0,0,1,.21-6.12C3,13.9,4,12.17,8.54,11c6.83-1.72,14.89-.63,22-.84a26.89,26.89,0,0,1,5.8-.06c1,.13,2,0,3,.1,1.7.24,4.12-.05,5.92.22s6.8.11,9.09.11A2.44,2.44,0,0,0,56,10V9c-1.09-.29-.43-.6-2.29-.58-1,0-2.08-.06-2.73-.12-1.4-.14-3.91-.07-5.71-.07-4,0-7.56-.38-11.7-.38-7.06,0-16.9-.33-23.53.82C7,9.22,3.9,10.35,2.4,12.56A12.05,12.05,0,0,0,.83,16.75C.44,18.56,0,31.26,0,33.2ZM10,23l3.87-1.11c2.68-.62,4.8-1.65,4.95.15,1.07-.08,2.84-.87,3.77-.71.61.11.68.17.83.71,1.63,0,4.3-1.44,5.65-.67.75.43.15.53,1.19.45a31.9,31.9,0,0,1,4.28-.73c1.62,0,.54-.1,1.11.25,1.53.94.59-.06,3.68-.06,2.17,0,2.59-.26,2.69,1a36.8,36.8,0,0,1-6.33,1.15c-.8,0-.14-.73-1.31-.75-1.87,0-5.58,2.33-6.17-.21-2.93.24-5.6,2.47-6.13.19a20.34,20.34,0,0,1-4,1c-.48-.72-.55-.25-.57-1.34-2,.16-4.43,1.53-7.48,1.53V23Zm3.26-10.55c.19-.73.62-.72,1.53-.76,3.08-.15,5.2-.38,8.45-.38,1.05,0,1.23-.16,2.1-.2s1.48,0,2.25-.05c1.51-.21,11.28-.6,12.82-.43.8.09,1.35.07,2.19.09a12.5,12.5,0,0,1,3.64.77c-.43.58-.83.37-1.81.5-2.69.37-14.52-.23-18.74.24l-4,.23c-2.8,0-5.63,0-8.44,0Zm4.41,18.23c1.25-.11,3.13-1.19,4.42-.78s.21.77,1.77.28c1.06-.33,3.91-1.16,4.35.5,1.39-.33,4.95-1,5.95.38-.19.7-.21.4-.58,1a26.59,26.59,0,0,0-4.11.1c-1.42.25-2.44.62-2.79-.87a4.42,4.42,0,0,0-2,.3c-3.64,1.09-2-.3-3.37-.3-2.39,0-4.73,2.23-4.79-.38l-2.74.9c-.66.26-2.3,1.23-3,.63.18-.69.48-.64,1.14-1,1.08-.51,5.21-2.82,5.76-.76ZM11.33,42c0-.61.72-.77,1.17-.94,1.23-.48,3.93-1.75,4.39,0,2.34-.55,3-1.46,5.07-.45,1.27.61,1.21-.32,2.79-.32s1,.45,2.32.56c.78.07,1.66-.08,1.07.67-1.24,1.53-3.17.3-3.2.3-1.1,0-1.54.77-2.87.77s-.71-1.31-2.69-.78c-1.73.46-3.35,1.62-3.83-.18-1.61,0-4.22,1.94-4.22.39ZM55,53.92c-1.36,0,.19-1.64.39-1.92,1.55-2.15,1.28-5.32,1.91-8.06h.39a11.54,11.54,0,0,1,.36,1.37c.32,2.77-.32,8.61-3.05,8.61ZM62,26.1c.1-1.23,1.67-2.34,2.44-3.11L67,20.2c.23-.25,5-5.36,5.53-4.86.32.32-1.62,2.09-2.29,2.93l-3.93,4.12c-1,1.12-3.18,3.62-4.34,3.71ZM4.05,44.9c0-1.9,0-2.78,1-2.87.36.76.32,4.68.51,5.81.63,3.69,1.85,4.54.64,4.54-1,0-1.44-1.47-1.65-2.38a18.3,18.3,0,0,1-.46-5.1Zm42.18-3.07c1.23-2.33,6.44-7.69,8.51-9.32,1.36-1.06,1-1.18,1.28-.86s-2.78,3.65-3.23,4.09c-1.34,1.34-5.1,6-6.56,6.09ZM3.86,20.73c0-1.33.89-6.36,2.87-6.52A10.87,10.87,0,0,1,6,16.58c-.69,2.11-.9,5.62-1.41,7.8H4.24a18.55,18.55,0,0,1-.38-3.65Zm69-13.62c.73-.71,1.72.21,2.74,1.1.83.74,2.3,2.2,1.67,3.31-.75-.06-1-.41-1.37-.92l-3-3.49Zm-69.21,23a5.57,5.57,0,0,1,.39-1.72h.57a15.2,15.2,0,0,1,0,6.71H4.24A22,22,0,0,1,3.66,30.13Z"/></g></g></svg>