<svg xmlns="http://www.w3.org/2000/svg" viewBox="0 0 79.88 65.36"><defs><style>.cls-1{fill-rule:evenodd;}</style></defs><title> photo</title><g id="Слой_2" data-name="Слой 2"><g id="Слой_1-2" data-name="Слой 1"><path id="_1" data-name="#1" class="cls-1" d="M2.43,52.58V36.4c0-1.93.24-3,.28-4.57C3.24,14-.5,11.69,11.34,11.06l14.55-.29c2.49-.43,3.61-8.34,6.49-8.34H46.15c1.56,0,4.59,5.73,6.88,8,2.53,2.44,17-.61,22.63,2.46,1.56.85,1.08,1.55,1.29,3.57.37,3.66.24,11,.22,14.87,0,2,.28,2.81.29,4.58,0,3.61.38,21.83-.81,24.56-1,2.31-3.43,1.59-6.33,2a61.46,61.46,0,0,1-8,.38c-1.55,0-2,.29-3.76.28l-46.37-.58c-8.29-.93-9.76,1.13-9.76-9.94ZM0,47.19C0,52.9-.29,61,3.88,63.54s43,1.71,51.17,1.71c3.56,0,17.61-.31,20.13-1.18s3.87-3.39,4.14-6.38c1.08-12.06.28-23.87.28-36.11a40.27,40.27,0,0,0-.22-6.25c-.4-2.41-.67-2.91-2.27-4.2-2.94-2.39-13.61-2-18.28-2S56,10.41,52.35,5.66C47.29-.93,48-.16,39.94.28c-9.87.53-8.3-2.21-14,7.55-.59,1-.83,1.09-2.41,1.09-4.76,0-14.18-.37-17.57.51C1.23,10.64.25,12.51.27,18.34.31,28.23,0,37.26,0,47.19Zm22.67-10c0,4.23,2.41,8,4.43,10.41a21.08,21.08,0,0,0,2,1.77,15.65,15.65,0,0,0,18.55-.15,12.1,12.1,0,0,0,3.63-3.67c5.13-7.24,3-18.27-5.85-23C42.43,21,40.23,21,37,21c-5.83,0-10.7,4.32-12.86,9a14.49,14.49,0,0,0-1.44,7.19Zm-2.16-.27a17.59,17.59,0,0,0,9.71,15.64,18.65,18.65,0,0,0,16.33.14A18.17,18.17,0,0,0,51.48,49a17.88,17.88,0,0,0,3.31-19.37,16.53,16.53,0,0,0-1.52-2.8,15.31,15.31,0,0,0-2.06-2.51,18.19,18.19,0,0,0-8.62-4.87c-4.13-1.15-7.52-.45-11.25,1.06A17.72,17.72,0,0,0,20.51,36.94Zm17-12.4a12.52,12.52,0,0,0-4.72,1.21c-6.72,3.37-8.48,13-2.78,18.69,4.31,4.3,11.06,4.43,15.94.12C49.5,41.42,50.4,35.09,48.29,31a12,12,0,0,0-5.37-5.41,11.12,11.12,0,0,0-5.41-1.07ZM24.83,35.33c0,3-.12,4.2,1.27,7.08,1.77,3.68,6.62,7.21,10.87,7.21,3.58,0,6.28-.3,9.22-2.65,9-7.24,5.52-21-4.91-23.23-9.15-2-16.45,5.13-16.45,11.59Zm7-25.62c3.65,0,3-.91,3-3.23-.8.54-2.72,2.31-3,3.23Zm8.1-1.35c0,1.33,3.38.81,5.94.81L44,5.94H42.91c0,1.64,0,2.61-1.35,3l-.27-3H39.94V8.36Zm-3.51,0c0,.62.19.81.81.81,1.37,0,1.08-.22,1.08-3.23-2.15,0-1.89-.25-1.89,2.42ZM30,11.06c2.43.57,5.94.27,9.17.27,7.57,0,11.81,1.15,6.64-5.83-1.66-2.25-5.18-1.62-7-1.48-1.41.11-3-.95-5.51.94a10.7,10.7,0,0,0-2.08,2.51A4.84,4.84,0,0,0,30,11.06Zm43.71,33.7a55.89,55.89,0,0,1-.54,8.37A9.1,9.1,0,0,1,72.48,56c-.87,1.57-1.19.3-2,1.47,1.22,1.66,3.49.48,4.31-3.25.67-3.08,1.39-14.67.19-17.7-.32-.81-.29-.81-1.26-.89-.47,5.57,0,3.87,0,9.16ZM4.86,38.56c1.08-.29,1.1-.69,1.09-3,0-5.49,1.31-11.34,0-17H5.4a16.62,16.62,0,0,0-.82,4.57c0,1.78,0,3.63,0,5.42,0,2.12-.76,7.83.26,10ZM4.05,51.5c0,6.06,1,8.09,5.94,8.09-.29-3.45-4.12,2.65-4-9.71a10.81,10.81,0,0,0-.54-4H4.86a16.21,16.21,0,0,0-.81,5.66ZM61.53,18.34c2,0,2-4.18-1.62-2.43a5.4,5.4,0,0,0-.27,1.89c1.41.38.06.54,1.89.54ZM58,17.26C58,20.39,64,21,64,16.72c0-5-5.93-2.81-5.93.54Zm9.71,5.93c0,1.06,2.38,2.54,3,0a3.09,3.09,0,0,0-3-1.35v1.35Zm-1.35-.27c0,3.58,5.67,3.82,5.67,0,0-3.21-5.67-3.6-5.67,0ZM29.15,37.75c2-1.06,7.69-5.8,9.5-7.48,1-.91,2.5-1.41,2.64-3-1.48.12-6.72,4.85-8,6-.66.58-1,.7-1.61,1.35-1.37,1.35-2.39,2-2.49,3.17Zm2.15,2.43a14.57,14.57,0,0,0,3.06-2.07c.5-.41.84-.64,1.38-1s.91-.75,1.5-1.2c.42-.32,1-.68,1.39-1,1.26-1,3.7-2.93,4-4.09-1.65.14-5,3.07-6.15,4.11s-5,3.48-5.19,5.33Zm3,1.08c1.22-.1.71-.13,2.55-1.5l5-3.66c4.28-3.38.71-2.75-3.13.91l-2.34,2a5.16,5.16,0,0,0-2,2.27Zm35.35-28c1.63.13,2.84.49,3.51,1.61a18.86,18.86,0,0,1,1.35,3.78H75c.43-1.87.4-3.92-1.15-5.06-1.12-.83-2.33-.87-4.25-.87v.54ZM50.19,44.49c2.13-.56,2.7-3.6,2.7-5.66-1.15.31-.92.42-1.58,2.46-.39,1.21-.84,2-1.12,3.2ZM38.32,41c.6-.16,4.71-2.22,5.13-3.78C42.08,37.33,38.69,39.62,38.32,41Z"/></g></g></svg>