<svg xmlns="http://www.w3.org/2000/svg" viewBox="0 0 51.03 51.84"><defs><style>.cls-1{fill-rule:evenodd;}</style></defs><title>thumb</title><g id="Слой_2" data-name="Слой 2"><g id="Слой_1-2" data-name="Слой 1"><path class="cls-1" d="M9.6,47c-1.73.83-4.18.72-6.24.72-.58,0-.7-.39-1.2-.72l.43-16.61c.27-2.23.22-.94.53-2.11,7.77,0,6.75.36,6.72,2.88L9.6,40.32V47ZM31,18c0,2.44,4.08,2.59,5.83,2.82,3.57.47,13.53-.23,11.14,5-.37.81-1.19,2.11-1.06,3.1.2,1.53,1.61,2.19,1.61,3,0,2.07-2.64,2.85-2.64,4.56s1.2.87,1.2,3.36c0,1.49-3.12,2-3.12,3.12,0,.9,1,3.9-2.66,5.26-2.08.77-6.22,1-8.86,1a51.57,51.57,0,0,1-7.06-.86c-3.05-.42-8.92-.57-10.85-.91-2.16-.37-2.22-.7-2.27-1.81L12,30c0-3,2.24-.54,6.55-5,2.38-2.46,2.53-6,5-9.62a54.58,54.58,0,0,0,3.56-5.32c1.61-3.11,2.22-7,4.32-7.45C35,5,31,15.54,31,18ZM9.36,26.16c-8.28,0-8.2-1.51-9,4L0,42.72c0,1.52,0,6.05.89,7.05S2.18,50,5,50.16c1.06.06,1.17.24,2.4.26,1.73,0,3-.26,5-.26,7.43,0,13.54,1.68,20.64,1.68,2.26,0,7.5-.41,9.1-1,2.75-1,5.09-3.73,4.34-6.94,3.34-1.76,4-4.35,2.4-7.44,1-1.43,1.61-1.46,2-3.77a3.85,3.85,0,0,0-1.52-3.91c1.48-3.09,2.6-6.18-.78-8.58C45.57,18,37,18.49,33.84,17.76c0-1.54,3.22-10.68.8-15.68a3.81,3.81,0,0,0-7,.4c-1.48,3-1.31,4.47-3.81,8.19-2,3-3,3.87-4.5,7.5-1,2.29-1.56,4.5-3.43,6.17l-1.45,1a13.17,13.17,0,0,1-5.13.86Zm24,22.32c4.28,0,2.83-1.44,1.22-1.46a30.46,30.46,0,0,1-4-.29c-1.12-.13-2.54-.29-3.84-.48a21.84,21.84,0,0,0-3.91-.41c0,1.89,1.36,1.76,4.31,2.18a45,45,0,0,0,6.25.46ZM7.44,37c0,1.6-.3,7.72,1,8.64.55-2.36.75-9.08.31-10.14-.29-.69-.21-.59-1-.66,0,1.09-.24,1-.24,2.16ZM39.6,47.52c2.95,0,3-2.64,2.16-2.64s-.59.52-1.27,1.13C39.61,46.78,39.63,46.05,39.6,47.52Z"/></g></g></svg>