<svg xmlns="http://www.w3.org/2000/svg" viewBox="0 0 87.43 60.16"><defs><style>.cls-1{fill-rule:evenodd;}</style></defs><title>video</title><g id="Слой_2" data-name="Слой 2"><g id="Слой_1-2" data-name="Слой 1"><path id="_2" data-name="#2" class="cls-1" d="M81.48,57.77l-8-.24c-1-1.33-.77-1-.77-3.4,0-1.25,3.33-.62,5.65-.85,1.27-.12,6.62-.69,6.62,1a3.44,3.44,0,0,1-3.45,3.45Zm-79-3.26c0-1.85,3.42-1.34,5.75-1.34l3.26.19c3.48,0,3.26-.29,3.26,2.3,0,1.19-.32,1.25-.76,1.92l-8.06.24a5.32,5.32,0,0,1-2.36-1,3.21,3.21,0,0,1-1.09-2.36Zm70.17-5.75c0-3.11-.26-2.71,6-2.68,1.51,0,6.13-.88,6.13.76,0,2.62.55,4.58-1.89,4.41a20.15,20.15,0,0,0-3.09-.19H73.43a2.78,2.78,0,0,1-.77-2.3ZM14,51.06c-2.76,0-6.66-.11-9.25.18s-2.07-1.75-2.07-4.4c0-1.64,4.62-.76,6.14-.76,6.21,0,5.94-.43,5.94,2.68a2.78,2.78,0,0,1-.76,2.3Zm58.66-8.24c0-6.22-1.23-4.58,9.6-4.79,2.91-.06,2.48-1,2.48,5,0,1.45-4.86.63-5.94.57-1.4-.07-6.14.58-6.14-.76ZM2.68,43c0-6.24-1.24-5,6.14-5,6.81,0,5.94-.79,5.94,4.8,0,1.34-4.73.69-6.13.76-1.09.06-6,.88-6-.57Zm70-10c0-4.73,1.74-2.06,7.34-2.82l4-.06c1.2,0,.77,3.08.77,5.18-.94.25-.17.42-1.3.36-.53,0-.89-.17-1.76-.18l-7.68,0c-.82-.06-1-.14-1.15-.77A6.94,6.94,0,0,1,72.66,33Zm-70,2.3c.94.25.21.48,1.47.34,8.77-1,10.61,1.76,10.61-2.64,0-3.79-1.19-2.85-4.21-2.68l-6.72-.2c-1.68,0-1.15,1.52-1.15,5.18Zm82.06-9.78c0,2,.2,2.67-2.68,2.5l-8.2-.24c-1.3-.34-2.26-4.63,1.3-4.57H79c3.39,0,5.75-1.07,5.75,2.3ZM2.68,26.71c0-4.52.86-3.45,5.56-3.45h3.83a2.46,2.46,0,0,1,1.78.34c1,.74.94,1.8.71,2.92-.4,1.92-1.76,1.35-5,1.35-3.67,0-6.91,1-6.91-1.15Zm82.06-6.13a5,5,0,0,1-.14-1.48c.08-.75.42-3.12-1-3.12h-9.2c-1.36,0-1.54,1.57-1.54,2.68,0,3.7.3,1.83,6.13,2.31,1,.09,2,.13,3.28.19,1.45.07,1.34.18,2.48-.58ZM2.68,17.7C2.68,17,3.13,16,3.83,16H13c1.87,0,1.53,2.92,1.53,4.21S11,20.76,8.45,21c-1,.09-2,.13-3.28.19-1.45.07-1.34.18-2.49-.58.25-3,0-.92,0-2.88ZM74.39,8.88h9.2c1.58,0,1.2,3.57,1,4.6-1.86.44-8.56.19-10.93.19-1.31,0-1-3.56-.54-4.18a1.63,1.63,0,0,1,1.31-.61ZM13.8,13.67c-2.37,0-9.06.25-10.92-.19-.25-1-.62-4.6,1-4.6H13c1.66,0,1.55,1.46,1.63,2,.12.9.11,2.76-.87,2.76ZM16.87,3.13c1.85-1.24,7.43-.77,10-.77l18.76.13a16.17,16.17,0,0,0,2.95,0l19.33.08a2.49,2.49,0,0,1,1.37.16,1.41,1.41,0,0,1,.73,1V43.58c0,2.17-.2,3.77-.19,5.75s0,3.85,0,5.77c0,1.1-.06,1.66-.85,2a8,8,0,0,1-2.61.45H18c-.46,0-.56-.31-1-.58V9.84c0-2.32-.19-4.23-.19-6.71ZM84.36,4.66c0,2.78-1.54,1.81-5,1.72l-2.87.2a13,13,0,0,1-3.65-.19c0-1.68-.83-2.47.32-3.51.87-.79,2.7-.52,4.29-.52,1.13,0,3.9-.21,4.49-.09,1.25.25,2.41,1,2.41,2.39ZM14.57,6.39c-2.51.58-4.65-.19-7.7.16s-3.8-.07-3.8-1.89A2.49,2.49,0,0,1,5.32,2.31a40.3,40.3,0,0,1,4.46,0c1.44,0,3.52-.27,4.37.42,1.3,1.07.46,1.83.42,3.61ZM0,49.91l.16,4.81c1.28,6.86,9.15,5,17.49,5.36a7.39,7.39,0,0,0,1.2,0l11.44,0c9.29,0,46.54.4,51.88-.46a6.49,6.49,0,0,0,2.45-.81c3.1-1.55,2.81-5.79,2.81-8.89,0-11-.2-21.44-.2-32.4,0-2.84-.19-5-.19-7.86,0-5.88.24-9.19-6.89-9.4L72.47.06c-7,0-55.53-.19-58.27.1-.32,0-.26,0-.64.06-.69.05-1.36,0-2.06,0A33.13,33.13,0,0,0,3.88.68c-4,.8-3.5,6.5-3.5,8.78,0,2.92-.19,5.15-.19,8.05,0,11-.19,21.38-.19,32.4Zm50.61-18c0-1.2,0-1.21-1.72-2.11l-7.22-4.09c-5.29-2.89-4.93-3.82-4.86-1.29,0,1.58-.12,4.24,0,5.52.83,6-1.22,10.07,1.4,8.42,1.53-1,11.62-6.28,12.35-6.45Zm-16.1,3.64L34.79,41c.68,1.75,2.87.23,3.75-.28L54,32.39c2.39-1.45-.86-2.7-3.34-4.18s-13.36-7.83-14.8-7.83c-1.65,0-1.15,5.6-1.15,7.1s-.2,2.28-.19,3.83,0,2.82,0,4.22ZM20.71,5.24c.15.59.37.77,1.15.77C27,6,34.93,6.3,39.49,5.24V4.86c-1.23,0-2.13-.39-3.64-.39-3,0-13.78.11-15.14.77ZM41.6,43c2.41,0,11.49-4.6,11.7-7.1-2.26,0-7.13,3.54-9.21,4.79-.8.47-2.24,1.37-2.49,2.31Zm-1-23.58c.31,1.17,4,2.94,5.24,3.58s4.7,2.55,6.45,2.55c-.17-.65-.47-.8-1-1.15a11.65,11.65,0,0,0-1.27-.85c-1.38-.83-8.53-5.29-9.47-4.13Zm8.43-14c.15.42.1.44.69.65a4.28,4.28,0,0,0,1.4.14c2.09.15,10.64.48,12.1-.21-.39-.53-.88-.49-1.71-.59l-4.23-.37C56,5,50,5,49.08,5.43Z"/></g></g></svg>